<svg xmlns="http://www.w3.org/2000/svg" width="693.1931762695312" height="383.245849609375" viewBox="-629.5154418945312 -193.16983032226562 693.1931762695312 383.245849609375"><title>Neo4j Graph Visualization</title><desc>Created using Neo4j (http://www.neo4j.com/)</desc><g class="layer relationships"><g class="relationship" transform="translate(-177.97912328673314 43.163506860936884) rotate(271.76299362047956)"><path class="b-outline" fill="#A5ABB6" stroke="none" d="M 25 0.5 L 72.2431099990345 0.5 L 72.2431099990345 -0.5 L 25 -0.5 Z M 128.18842249903452 0.5 L 175.431532498069 0.5 L 175.431532498069 3.5 L 182.431532498069 0 L 175.431532498069 -3.5 L 175.431532498069 -0.5 L 128.18842249903452 -0.5 Z"/><text text-anchor="middle" pointer-events="none" font-size="8px" fill="#000000" x="100.2157662490345" y="3" font-family="Helvetica Neue, Helvetica, Arial, sans-serif">IN_PATHWAY</text></g><g class="relationship" transform="translate(-177.97912328673314 43.163506860936884) rotate(247.9658587892793)"><path class="b-outline" fill="#A5ABB6" stroke="none" d="M 25 0.5 L 33.25213452177046 0.5 L 33.25213452177046 -0.5 L 25 -0.5 Z M 94.82244702177046 0.5 L 103.07458154354092 0.5 L 103.07458154354092 3.5 L 110.07458154354092 0 L 103.07458154354092 -3.5 L 103.07458154354092 -0.5 L 94.82244702177046 -0.5 Z"/><text text-anchor="middle" pointer-events="none" font-size="8px" fill="#000000" x="64.03729077177046" y="3" transform="rotate(180 64.03729077177046 0)" font-family="Helvetica Neue, Helvetica, Arial, sans-serif">ENZYME_LINK</text></g><g class="relationship" transform="translate(-177.97912328673314 43.163506860936884) rotate(359.75725878863636)"><path class="b-outline" fill="#A5ABB6" stroke="none" d="M 25 0.5 L 77.15944764850637 0.5 L 77.15944764850637 -0.5 L 25 -0.5 Z M 128.4992913985064 0.5 L 180.65873904701274 0.5 L 180.65873904701274 3.5 L 187.65873904701274 0 L 180.65873904701274 -3.5 L 180.65873904701274 -0.5 L 128.4992913985064 -0.5 Z"/><text text-anchor="middle" pointer-events="none" font-size="8px" fill="#000000" x="102.82936952350637" y="3" font-family="Helvetica Neue, Helvetica, Arial, sans-serif">PRODUCES</text></g><g class="relationship" transform="translate(-177.97912328673314 43.163506860936884) rotate(380.28101720709395)"><path class="b-outline" fill="#A5ABB6" stroke="none" d="M 25 0.5 L 80.03144258403526 0.5 L 80.03144258403526 -0.5 L 25 -0.5 Z M 131.37128633403526 0.5 L 186.40272891807052 0.5 L 186.40272891807052 3.5 L 193.40272891807052 0 L 186.40272891807052 -3.5 L 186.40272891807052 -0.5 L 131.37128633403526 -0.5 Z"/><text text-anchor="middle" pointer-events="none" font-size="8px" fill="#000000" x="105.70136445903526" y="3" font-family="Helvetica Neue, Helvetica, Arial, sans-serif">PRODUCES</text></g><g class="relationship" transform="translate(-403.40055578564846 51.2288505091867) rotate(357.95089087152724)"><path class="b-outline" fill="#A5ABB6" stroke="none" d="M 25 0.5 L 83.82775744631753 0.5 L 83.82775744631753 -0.5 L 25 -0.5 Z M 134.73791369631755 0.5 L 193.56567114263507 0.5 L 193.56567114263507 3.5 L 200.56567114263507 0 L 193.56567114263507 -3.5 L 193.56567114263507 -0.5 L 134.73791369631755 -0.5 Z"/><text text-anchor="middle" pointer-events="none" font-size="8px" fill="#000000" x="109.28283557131753" y="3" font-family="Helvetica Neue, Helvetica, Arial, sans-serif">CATALYZES</text></g><g class="relationship" transform="translate(-403.40055578564846 51.2288505091867) rotate(539.806863581036)"><path class="b-outline" fill="#A5ABB6" stroke="none" d="M 25 0.5 L 57.72514290771079 0.5 L 57.72514290771079 -0.5 L 25 -0.5 Z M 128.9321741577108 0.5 L 161.65731706542158 0.5 L 161.65731706542158 3.5 L 168.65731706542158 0 L 161.65731706542158 -3.5 L 161.65731706542158 -0.5 L 128.9321741577108 -0.5 Z"/><text text-anchor="middle" pointer-events="none" font-size="8px" fill="#000000" x="93.32865853271079" y="3" transform="rotate(180 93.32865853271079 0)" font-family="Helvetica Neue, Helvetica, Arial, sans-serif">HAS_COFACTOR</text></g><g class="relationship" transform="translate(-404.19978848609816 -63.314308588291794) rotate(385.20548453332924)"><path class="b-outline" fill="#A5ABB6" stroke="none" d="M 25 0.5 L 96.05823571205016 0.5 L 96.05823571205016 -0.5 L 25 -0.5 Z M 146.96839196205016 0.5 L 218.02662767410033 0.5 L 218.02662767410033 3.5 L 225.02662767410033 0 L 218.02662767410033 -3.5 L 218.02662767410033 -0.5 L 146.96839196205016 -0.5 Z"/><text text-anchor="middle" pointer-events="none" font-size="8px" fill="#000000" x="121.51331383705016" y="3" font-family="Helvetica Neue, Helvetica, Arial, sans-serif">CATALYZES</text></g><g class="relationship" transform="translate(-404.19978848609816 -63.314308588291794) rotate(180.1464434980844)"><path class="b-outline" fill="#A5ABB6" stroke="none" d="M 25 0.5 L 56.19823669432475 0.5 L 56.19823669432475 -0.5 L 25 -0.5 Z M 127.40526794432475 0.5 L 158.6035046386495 0.5 L 158.6035046386495 3.5 L 165.6035046386495 0 L 158.6035046386495 -3.5 L 158.6035046386495 -0.5 L 127.40526794432475 -0.5 Z"/><text text-anchor="middle" pointer-events="none" font-size="8px" fill="#000000" x="91.80175231932475" y="3" transform="rotate(180 91.80175231932475 0)" font-family="Helvetica Neue, Helvetica, Arial, sans-serif">HAS_COFACTOR</text></g><g class="relationship" transform="translate(-402.18679459596666 160.38292983107496) rotate(332.39869850048433)"><path class="b-outline" fill="#A5ABB6" stroke="none" d="M 25 0.5 L 97.54538926085735 0.5 L 97.54538926085735 -0.5 L 25 -0.5 Z M 148.45554551085735 0.5 L 221.0009347717147 0.5 L 221.0009347717147 3.5 L 228.0009347717147 0 L 221.0009347717147 -3.5 L 221.0009347717147 -0.5 L 148.45554551085735 -0.5 Z"/><text text-anchor="middle" pointer-events="none" font-size="8px" fill="#000000" x="123.00046738585735" y="3" font-family="Helvetica Neue, Helvetica, Arial, sans-serif">CATALYZES</text></g><g class="relationship" transform="translate(-402.18679459596666 160.38292983107496) rotate(539.7997708644069)"><path class="b-outline" fill="#A5ABB6" stroke="none" d="M 25 0.5 L 60.06139903311376 0.5 L 60.06139903311376 -0.5 L 25 -0.5 Z M 131.26843028311376 0.5 L 166.32982931622752 0.5 L 166.32982931622752 3.5 L 173.32982931622752 0 L 166.32982931622752 -3.5 L 166.32982931622752 -0.5 L 131.26843028311376 -0.5 Z"/><text text-anchor="middle" pointer-events="none" font-size="8px" fill="#000000" x="95.66491465811376" y="3" transform="rotate(180 95.66491465811376 0)" font-family="Helvetica Neue, Helvetica, Arial, sans-serif">HAS_COFACTOR</text></g><g class="relationship" transform="translate(24.273951122612374 -87.23160338236885) rotate(507.18961338475054)"><path class="b-outline" fill="#A5ABB6" stroke="none" d="M 25 0.5 L 82.9271115282177 0.5 L 82.9271115282177 -0.5 L 25 -0.5 Z M 150.7161740282177 0.5 L 208.6432855564354 0.5 L 208.6432855564354 3.5 L 215.6432855564354 0 L 208.6432855564354 -3.5 L 208.6432855564354 -0.5 L 150.7161740282177 -0.5 Z"/><text text-anchor="middle" pointer-events="none" font-size="8px" fill="#000000" x="116.8216427782177" y="3" transform="rotate(180 116.8216427782177 0)" font-family="Helvetica Neue, Helvetica, Arial, sans-serif">CONSUMED_BY</text></g><g class="relationship" transform="translate(-22.449653158094506 -123.32255968854834) rotate(493.0512597272348)"><path class="b-outline" fill="#A5ABB6" stroke="none" d="M 25 0.5 L 76.52103664308335 0.5 L 76.52103664308335 -0.5 L 25 -0.5 Z M 144.31009914308333 0.5 L 195.8311357861667 0.5 L 195.8311357861667 3.5 L 202.8311357861667 0 L 195.8311357861667 -3.5 L 195.8311357861667 -0.5 L 144.31009914308333 -0.5 Z"/><text text-anchor="middle" pointer-events="none" font-size="8px" fill="#000000" x="110.41556789308335" y="3" transform="rotate(180 110.41556789308335 0)" font-family="Helvetica Neue, Helvetica, Arial, sans-serif">CONSUMED_BY</text></g></g><g class="layer nodes"><g class="node" aria-label="graph-node60109" transform="translate(-177.97912328673314,43.163506860936884)"><circle class="b-outline" cx="0" cy="0" r="25" fill="#57C7E3" stroke="#23b3d7" stroke-width="2px"/><text class="caption" text-anchor="middle" pointer-events="none" x="0" y="5" font-size="10px" fill="#2A2C34" font-family="Helvetica Neue, Helvetica, Arial, sans-serif"> SUPER…</text></g><g class="node" aria-label="graph-node65584" transform="translate(-403.40055578564846,51.2288505091867)"><circle class="b-outline" cx="0" cy="0" r="25" fill="#F16667" stroke="#eb2728" stroke-width="2px"/><text class="caption" text-anchor="middle" pointer-events="none" x="0" y="5" font-size="10px" fill="#FFFFFF" font-family="Helvetica Neue, Helvetica, Arial, sans-serif"> superoxi…</text></g><g class="node" aria-label="graph-node35915" transform="translate(-597.0567726132019,51.88164221932668)"><circle class="b-outline" cx="0" cy="0" r="25" fill="#D9C8AE" stroke="#c0a378" stroke-width="2px"/><text class="caption" text-anchor="middle" pointer-events="none" x="0" y="5" font-size="10px" fill="#2A2C34" font-family="Helvetica Neue, Helvetica, Arial, sans-serif"> Cu2+</text></g><g class="node" aria-label="graph-node63665" transform="translate(-404.19978848609816,-63.314308588291794)"><circle class="b-outline" cx="0" cy="0" r="25" fill="#F16667" stroke="#eb2728" stroke-width="2px"/><text class="caption" text-anchor="middle" pointer-events="none" x="0" y="5" font-size="10px" fill="#FFFFFF" font-family="Helvetica Neue, Helvetica, Arial, sans-serif"> superoxi…</text></g><g class="node" aria-label="graph-node35932" transform="translate(-594.8026705441623,-63.801475598020545)"><circle class="b-outline" cx="0" cy="0" r="25" fill="#D9C8AE" stroke="#c0a378" stroke-width="2px"/><text class="caption" text-anchor="middle" pointer-events="none" x="0" y="5" font-size="10px" fill="#2A2C34" font-family="Helvetica Neue, Helvetica, Arial, sans-serif"> Fe3+</text></g><g class="node" aria-label="graph-node63540" transform="translate(-402.18679459596666,160.38292983107496)"><circle class="b-outline" cx="0" cy="0" r="25" fill="#F16667" stroke="#eb2728" stroke-width="2px"/><text class="caption" text-anchor="middle" pointer-events="none" x="0" y="5" font-size="10px" fill="#FFFFFF" font-family="Helvetica Neue, Helvetica, Arial, sans-serif"> superoxi…</text></g><g class="node" aria-label="graph-node35912" transform="translate(-600.5154128487907,161.07602328043023)"><circle class="b-outline" cx="0" cy="0" r="25" fill="#D9C8AE" stroke="#c0a378" stroke-width="2px"/><text class="caption" text-anchor="middle" pointer-events="none" x="0" y="5" font-size="10px" fill="#2A2C34" font-family="Helvetica Neue, Helvetica, Arial, sans-serif"> Mn2+</text></g><g class="node" aria-label="graph-node63105" transform="translate(-171.59745316974238,-164.16983575673126)"><circle class="b-outline" cx="0" cy="0" r="25" fill="#8DCC93" stroke="#5db665" stroke-width="2px"/><text class="caption" text-anchor="middle" pointer-events="none" x="0" y="5" font-size="10px" fill="#2A2C34" font-family="Helvetica Neue, Helvetica, Arial, sans-serif"> superoxi…</text></g><g class="node" aria-label="graph-node2752" transform="translate(-228.65357011273605,-82.0452908253331)"><circle class="b-outline" cx="0" cy="0" r="25" fill="#4C8EDA" stroke="#2870c2" stroke-width="2px"/><text class="caption" text-anchor="middle" pointer-events="none" x="0" y="5" font-size="10px" fill="#FFFFFF" font-family="Helvetica Neue, Helvetica, Arial, sans-serif"> Superoxi…</text></g><g class="node" aria-label="graph-node35562" transform="translate(34.677707250656425,42.26255244619159)"><circle class="b-outline" cx="0" cy="0" r="25" fill="#D9C8AE" stroke="#c0a378" stroke-width="2px"/><text class="caption" text-anchor="middle" pointer-events="none" x="0" y="5" font-size="10px" fill="#2A2C34" font-family="Helvetica Neue, Helvetica, Arial, sans-serif"> dioxygen</text></g><g class="node" aria-label="graph-node34409" transform="translate(26.883472300989844,118.86733059475678)"><circle class="b-outline" cx="0" cy="0" r="25" fill="#D9C8AE" stroke="#c0a378" stroke-width="2px"/><text class="caption" text-anchor="middle" pointer-events="none" x="0" y="0" font-size="10px" fill="#2A2C34" font-family="Helvetica Neue, Helvetica, Arial, sans-serif"> hydrogen</text><text class="caption" text-anchor="middle" pointer-events="none" x="0" y="10" font-size="10px" fill="#2A2C34" font-family="Helvetica Neue, Helvetica, Arial, sans-serif"> peroxi…</text></g><g class="node" aria-label="graph-node35943" transform="translate(24.273951122612374,-87.23160338236885)"><circle class="b-outline" cx="0" cy="0" r="25" fill="#D9C8AE" stroke="#c0a378" stroke-width="2px"/><text class="caption" text-anchor="middle" pointer-events="none" x="0" y="5" font-size="10px" fill="#2A2C34" font-family="Helvetica Neue, Helvetica, Arial, sans-serif"> H+</text></g><g class="node" aria-label="graph-node34538" transform="translate(-22.449653158094506,-123.32255968854834)"><circle class="b-outline" cx="0" cy="0" r="25" fill="#D9C8AE" stroke="#c0a378" stroke-width="2px"/><text class="caption" text-anchor="middle" pointer-events="none" x="0" y="5" font-size="10px" fill="#2A2C34" font-family="Helvetica Neue, Helvetica, Arial, sans-serif"> superoxi…</text></g></g></svg>