<?xml version="1.0" encoding="UTF-8" standalone="no"?>
<!-- Created with Inkscape (http://www.inkscape.org/) -->

<svg
   width="54.373425mm"
   height="42.51656mm"
   viewBox="0 0 54.373425 42.51656"
   version="1.1"
   id="svg3409"
   inkscape:version="1.2.1 (9c6d41e410, 2022-07-14)"
   sodipodi:docname="network.svg"
   xmlns:inkscape="http://www.inkscape.org/namespaces/inkscape"
   xmlns:sodipodi="http://sodipodi.sourceforge.net/DTD/sodipodi-0.dtd"
   xmlns="http://www.w3.org/2000/svg"
   xmlns:svg="http://www.w3.org/2000/svg">
  <sodipodi:namedview
     id="namedview3411"
     pagecolor="#ffffff"
     bordercolor="#000000"
     borderopacity="0.25"
     inkscape:showpageshadow="2"
     inkscape:pageopacity="0.0"
     inkscape:pagecheckerboard="0"
     inkscape:deskcolor="#d1d1d1"
     inkscape:document-units="mm"
     showgrid="false"
     inkscape:zoom="0.914906"
     inkscape:cx="68.313029"
     inkscape:cy="261.77553"
     inkscape:window-width="1350"
     inkscape:window-height="1230"
     inkscape:window-x="1748"
     inkscape:window-y="330"
     inkscape:window-maximized="0"
     inkscape:current-layer="layer1" />
  <defs
     id="defs3406" />
  <g
     inkscape:label="Layer 1"
     inkscape:groupmode="layer"
     id="layer1"
     transform="translate(-53.786995,-79.380469)">
    <path
       id="path4371"
       style="fill:none;stroke:#120808;stroke-width:6.37718"
       d="m 99.477193,116.83349 a 2.3087361,1.8749484 0 0 1 -2.308736,1.87495 2.3087361,1.8749484 0 0 1 -2.308736,-1.87495 2.3087361,1.8749484 0 0 1 2.308736,-1.87495 2.3087361,1.8749484 0 0 1 2.308736,1.87495 z m -13.298032,-9.83252 11.278481,10.98929 M 61.593057,107.57935 a 2.3087361,1.8749484 0 0 1 -2.308736,1.87495 2.3087361,1.8749484 0 0 1 -2.308736,-1.87495 2.3087361,1.8749484 0 0 1 2.308736,-1.87495 2.3087361,1.8749484 0 0 1 2.308736,1.87495 z M 104.97183,89.071083 a 2.3087361,1.8749484 0 0 1 -2.30874,1.874948 2.3087361,1.8749484 0 0 1 -2.30873,-1.874948 2.3087361,1.8749484 0 0 1 2.30873,-1.874948 2.3087361,1.8749484 0 0 1 2.30874,1.874948 z M 69.545835,84.444008 a 2.3087361,1.8749484 0 0 1 -2.308736,1.874948 2.3087361,1.8749484 0 0 1 -2.308736,-1.874948 2.3087361,1.8749484 0 0 1 2.308736,-1.874949 2.3087361,1.8749484 0 0 1 2.308736,1.874949 z m -3.608654,-0.995165 8.672867,11.244477 m -3.833461,9.24164 -13.441199,4.10767 M 87.046738,98.036027 104.10905,88.781889 M 87.046743,100.92795 a 7.229795,7.5189877 0 0 1 -7.229795,7.51899 7.229795,7.5189877 0 0 1 -7.229795,-7.51899 7.229795,7.5189877 0 0 1 7.229795,-7.51899 7.229795,7.5189877 0 0 1 7.229795,7.51899 z" />
  </g>
</svg>
